<?xml version="1.0" encoding="UTF-8"?>
<svg xmlns="http://www.w3.org/2000/svg" xmlns:xlink="http://www.w3.org/1999/xlink" width="20px" height="20px"
  viewBox="0 0 20 20" version="1.1">
  <g id="surface1">
    <path style=" stroke:none;fill-rule:nonzero;fill:rgb(0%,0%,0%);fill-opacity:1;"
      d="M 10.546875 0.257812 C 10.015625 -0.09375 9.320312 -0.0859375 8.792969 0.28125 L 0.929688 5.757812 C 0.507812 6.050781 0.257812 6.53125 0.257812 7.042969 L 0.257812 12.945312 C 0.257812 13.46875 0.523438 13.957031 0.960938 14.246094 L 8.953125 19.53125 C 9.476562 19.878906 10.15625 19.878906 10.675781 19.53125 L 18.828125 14.144531 C 19.265625 13.855469 19.53125 13.367188 19.53125 12.84375 L 19.53125 7.042969 C 19.53125 6.519531 19.269531 6.027344 18.832031 5.738281 Z M 16.636719 6.652344 L 13.625 8.675781 L 10.800781 6.621094 L 10.78125 2.578125 Z M 8.738281 2.582031 L 8.738281 6.539062 L 5.839844 8.5625 L 2.953125 6.625 Z M 2.160156 8.578125 L 4.03125 9.828125 L 2.160156 11.136719 Z M 8.785156 17.007812 L 2.953125 13.097656 L 5.867188 11.0625 L 8.785156 13.019531 Z M 7.679688 9.796875 L 9.566406 8.476562 L 11.765625 9.921875 L 9.816406 11.230469 Z M 10.847656 17.007812 L 10.847656 13.019531 L 13.636719 11.148438 L 16.640625 13.125 Z M 17.472656 11.203125 L 15.492188 9.902344 L 17.472656 8.574219 Z M 17.472656 11.203125 " />
  </g>
</svg>