<?xml version="1.0" encoding="UTF-8"?>
<svg xmlns="http://www.w3.org/2000/svg" xmlns:xlink="http://www.w3.org/1999/xlink" width="100px" height="100px" viewBox="0 0 100 100" version="1.1">
<g id="surface1">
<path style=" stroke:none;fill-rule:nonzero;fill:rgb(88.235294%,0%,59.607843%);fill-opacity:1;" d="M 14.941406 71.082031 L 50.726562 9.105469 L 53.9375 10.960938 L 18.15625 72.9375 Z M 14.941406 71.082031 "/>
<path style=" stroke:none;fill-rule:nonzero;fill:rgb(88.235294%,0%,59.607843%);fill-opacity:1;" d="M 14.203125 66.132812 L 85.773438 66.132812 L 85.773438 69.839844 L 14.203125 69.839844 Z M 14.203125 66.132812 "/>
<path style=" stroke:none;fill-rule:nonzero;fill:rgb(88.235294%,0%,59.607843%);fill-opacity:1;" d="M 15.621094 68.214844 L 17.476562 65.003906 L 53.269531 85.671875 L 51.417969 88.882812 Z M 15.621094 68.214844 "/>
<path style=" stroke:none;fill-rule:nonzero;fill:rgb(88.235294%,0%,59.607843%);fill-opacity:1;" d="M 46.71875 14.347656 L 48.574219 11.136719 L 84.371094 31.804688 L 82.515625 35.015625 Z M 46.71875 14.347656 "/>
<path style=" stroke:none;fill-rule:nonzero;fill:rgb(88.235294%,0%,59.607843%);fill-opacity:1;" d="M 15.628906 31.792969 L 51.425781 11.125 L 53.28125 14.335938 L 17.484375 35.003906 Z M 15.628906 31.792969 "/>
<path style=" stroke:none;fill-rule:nonzero;fill:rgb(88.235294%,0%,59.607843%);fill-opacity:1;" d="M 46.070312 10.960938 L 49.285156 9.105469 L 85.066406 71.082031 L 81.855469 72.9375 Z M 46.070312 10.960938 "/>
<path style=" stroke:none;fill-rule:nonzero;fill:rgb(88.235294%,0%,59.607843%);fill-opacity:1;" d="M 17.042969 29.332031 L 20.753906 29.332031 L 20.753906 70.667969 L 17.042969 70.667969 Z M 17.042969 29.332031 "/>
<path style=" stroke:none;fill-rule:nonzero;fill:rgb(88.235294%,0%,59.607843%);fill-opacity:1;" d="M 79.25 29.332031 L 82.960938 29.332031 L 82.960938 70.667969 L 79.25 70.667969 Z M 79.25 29.332031 "/>
<path style=" stroke:none;fill-rule:nonzero;fill:rgb(88.235294%,0%,59.607843%);fill-opacity:1;" d="M 49.167969 84.507812 L 80.300781 66.53125 L 81.921875 69.335938 L 50.789062 87.3125 Z M 49.167969 84.507812 "/>
<path style=" stroke:none;fill-rule:nonzero;fill:rgb(88.235294%,0%,59.607843%);fill-opacity:1;" d="M 87.875 71.875 C 85.722656 75.617188 80.941406 76.902344 77.203125 74.746094 C 73.460938 72.589844 72.179688 67.808594 74.339844 64.070312 C 76.496094 60.332031 81.277344 59.054688 85.015625 61.214844 C 88.746094 63.371094 90.023438 68.140625 87.875 71.875 "/>
<path style=" stroke:none;fill-rule:nonzero;fill:rgb(88.235294%,0%,59.607843%);fill-opacity:1;" d="M 25.625 35.9375 C 23.472656 39.679688 18.691406 40.964844 14.953125 38.808594 C 11.210938 36.652344 9.929688 31.871094 12.089844 28.132812 C 14.246094 24.394531 19.027344 23.117188 22.765625 25.277344 C 26.496094 27.433594 27.773438 32.203125 25.625 35.9375 "/>
<path style=" stroke:none;fill-rule:nonzero;fill:rgb(88.235294%,0%,59.607843%);fill-opacity:1;" d="M 12.125 71.875 C 9.964844 68.136719 11.242188 63.355469 14.980469 61.199219 C 18.71875 59.039062 23.5 60.320312 25.65625 64.0625 C 27.8125 67.800781 26.527344 72.582031 22.785156 74.734375 C 19.050781 76.882812 14.28125 75.605469 12.125 71.875 "/>
<path style=" stroke:none;fill-rule:nonzero;fill:rgb(88.235294%,0%,59.607843%);fill-opacity:1;" d="M 74.375 35.9375 C 72.214844 32.199219 73.492188 27.417969 77.230469 25.261719 C 80.96875 23.101562 85.75 24.382812 87.90625 28.125 C 90.0625 31.863281 88.777344 36.644531 85.035156 38.796875 C 81.300781 40.945312 76.53125 39.667969 74.375 35.9375 "/>
<path style=" stroke:none;fill-rule:nonzero;fill:rgb(88.235294%,0%,59.607843%);fill-opacity:1;" d="M 50 93.75 C 45.683594 93.75 42.1875 90.253906 42.1875 85.9375 C 42.1875 81.621094 45.683594 78.125 50 78.125 C 54.316406 78.125 57.8125 81.621094 57.8125 85.9375 C 57.816406 88.011719 56.996094 90 55.53125 91.46875 C 54.0625 92.933594 52.074219 93.753906 50 93.75 "/>
<path style=" stroke:none;fill-rule:nonzero;fill:rgb(88.235294%,0%,59.607843%);fill-opacity:1;" d="M 50 21.847656 C 45.683594 21.847656 42.1875 18.347656 42.1875 14.035156 C 42.1875 9.71875 45.683594 6.222656 50 6.222656 C 54.316406 6.222656 57.8125 9.71875 57.8125 14.035156 C 57.816406 16.109375 56.996094 18.097656 55.53125 19.566406 C 54.0625 21.03125 52.074219 21.851562 50 21.847656 "/>
</g>
</svg>
