<?xml version="1.0" encoding="UTF-8"?>
<svg xmlns="http://www.w3.org/2000/svg" xmlns:xlink="http://www.w3.org/1999/xlink" width="100px" height="100px" viewBox="0 0 100 100" version="1.1">
<g id="surface1">
<path style=" stroke:none;fill-rule:nonzero;fill:rgb(77.647059%,23.921569%,7.843137%);fill-opacity:1;" d="M 84.652344 49.332031 C 84.652344 44.832031 81.007812 41.1875 76.507812 41.1875 C 76.222656 41.1875 75.9375 41.203125 75.652344 41.230469 L 86.839844 8.238281 L 39.300781 8.238281 L 50.472656 41.203125 C 50.308594 41.203125 50.144531 41.1875 49.976562 41.1875 C 45.960938 41.183594 42.539062 44.109375 41.921875 48.082031 C 41.304688 52.050781 43.675781 55.878906 47.507812 57.09375 C 45.773438 60.078125 43.617188 62.792969 41.101562 65.152344 C 37.832031 68.28125 33.941406 70.695312 29.6875 72.238281 C 24.738281 69.890625 22.460938 64.109375 24.484375 59.019531 C 24.726562 58.457031 24.96875 57.886719 25.199219 57.320312 C 28.941406 56.4375 31.558594 53.058594 31.476562 49.21875 C 31.394531 45.375 28.640625 42.109375 24.863281 41.386719 C 21.089844 40.664062 17.320312 42.679688 15.828125 46.222656 C 14.332031 49.761719 15.515625 53.867188 18.667969 56.070312 C 16.070312 60.78125 14.085938 65.808594 12.765625 71.027344 C 11.660156 77.699219 12.765625 84.777344 18.53125 88.78125 C 31.96875 98.097656 46.558594 83.007812 61.941406 79.214844 C 67.515625 77.839844 73.632812 78.0625 78.542969 75.21875 C 82.132812 73.171875 84.628906 69.636719 85.351562 65.570312 C 86.011719 61.699219 85.074219 57.726562 82.757812 54.5625 C 83.980469 53.097656 84.652344 51.25 84.648438 49.339844 Z M 58.125 49.375 L 58.125 49.347656 C 58.128906 46.496094 56.640625 43.851562 54.199219 42.378906 L 63.085938 24.375 L 71.992188 42.542969 C 69.722656 44.050781 68.363281 46.597656 68.367188 49.320312 C 68.367188 49.382812 68.367188 49.441406 68.367188 49.5 Z M 58.125 49.375 "/>
<path style=" stroke:none;fill-rule:nonzero;fill:rgb(100%,100%,100%);fill-opacity:1;" d="M 86.644531 49.332031 C 86.636719 44.460938 83.171875 40.28125 78.382812 39.375 L 89.617188 6.25 L 36.527344 6.25 L 47.777344 39.441406 C 43.761719 40.339844 40.6875 43.578125 40 47.636719 C 39.316406 51.695312 41.152344 55.765625 44.652344 57.933594 C 43.238281 60.035156 41.597656 61.96875 39.753906 63.703125 C 36.898438 66.433594 33.546875 68.585938 29.878906 70.046875 C 26.320312 67.980469 24.8125 63.621094 26.335938 59.796875 L 26.460938 59.507812 L 26.691406 58.960938 C 30.96875 57.476562 33.746094 53.335938 33.492188 48.8125 C 33.242188 44.289062 30.019531 40.484375 25.601562 39.488281 C 21.183594 38.488281 16.640625 40.542969 14.46875 44.515625 C 12.296875 48.492188 13.027344 53.425781 16.253906 56.601562 C 15.914062 57.324219 15.558594 58.054688 15.195312 58.808594 C 13.167969 62.535156 11.695312 66.535156 10.820312 70.683594 C 9.367188 79.433594 11.710938 86.445312 17.414062 90.398438 C 20.480469 92.585938 24.152344 93.761719 27.917969 93.75 C 34.582031 93.75 41.320312 90.402344 47.917969 87.128906 C 52.527344 84.621094 57.390625 82.613281 62.425781 81.132812 C 64.226562 80.691406 66.085938 80.421875 68.050781 80.136719 C 72.054688 79.816406 75.960938 78.726562 79.550781 76.925781 C 83.648438 74.582031 86.496094 70.542969 87.320312 65.894531 C 87.984375 61.992188 87.21875 57.984375 85.164062 54.601562 C 86.136719 53.015625 86.648438 51.191406 86.648438 49.328125 Z M 82.664062 49.332031 C 82.664062 52.730469 79.910156 55.488281 76.507812 55.488281 C 73.109375 55.488281 70.351562 52.730469 70.351562 49.332031 C 70.351562 45.929688 73.109375 43.175781 76.507812 43.175781 C 79.90625 43.179688 82.664062 45.933594 82.664062 49.332031 Z M 84.0625 10.226562 L 74.144531 39.476562 C 73.71875 39.582031 73.300781 39.710938 72.894531 39.867188 L 63.097656 19.867188 L 53.269531 39.75 C 52.839844 39.601562 52.402344 39.484375 51.960938 39.394531 L 42.074219 10.226562 Z M 49.976562 43.175781 C 53.378906 43.175781 56.132812 45.929688 56.132812 49.332031 C 56.132812 52.730469 53.378906 55.488281 49.976562 55.488281 C 46.578125 55.488281 43.820312 52.730469 43.820312 49.332031 C 43.824219 45.933594 46.578125 43.179688 49.976562 43.175781 Z M 23.347656 43.234375 C 26.75 43.234375 29.503906 45.996094 29.5 49.398438 C 29.496094 52.800781 26.734375 55.554688 23.332031 55.546875 C 19.929688 55.539062 17.179688 52.777344 17.1875 49.375 C 17.191406 45.976562 19.945312 43.222656 23.34375 43.21875 Z M 83.398438 65.214844 C 82.773438 68.703125 80.632812 71.730469 77.554688 73.484375 C 74.398438 75.015625 70.980469 75.9375 67.480469 76.199219 C 65.507812 76.484375 63.464844 76.777344 61.46875 77.273438 C 56.152344 78.8125 51.019531 80.921875 46.15625 83.5625 C 36.269531 88.472656 27.71875 92.710938 19.679688 87.132812 C 13.785156 83.046875 14.054688 75.484375 14.742188 71.339844 C 15.554688 67.570312 16.902344 63.933594 18.75 60.550781 C 19.039062 59.960938 19.320312 59.378906 19.59375 58.804688 C 20.433594 59.140625 21.3125 59.359375 22.210938 59.460938 C 20.570312 65.257812 23.339844 71.398438 28.773438 74.007812 L 29.539062 74.398438 L 30.351562 74.113281 C 34.863281 72.484375 38.988281 69.929688 42.460938 66.613281 C 44.75 64.457031 46.765625 62.023438 48.453125 59.367188 C 52.890625 60.039062 57.238281 57.714844 59.144531 53.65625 C 61.050781 49.59375 60.058594 44.761719 56.703125 41.78125 L 63.070312 28.902344 L 69.507812 42.027344 C 65.710938 45.6875 65.355469 51.644531 68.695312 55.726562 C 72.03125 59.808594 77.941406 60.648438 82.28125 57.652344 C 83.441406 59.996094 83.832031 62.644531 83.390625 65.222656 Z M 83.398438 65.214844 "/>
</g>
</svg>
