<?xml version="1.0" encoding="UTF-8"?>
<svg xmlns="http://www.w3.org/2000/svg" xmlns:xlink="http://www.w3.org/1999/xlink" width="100px" height="100px" viewBox="0 0 100 100" version="1.1">
<g id="surface1">
<path style=" stroke:none;fill-rule:evenodd;fill:rgb(0%,84.705882%,100%);fill-opacity:1;" d="M 57 49.929688 C 57 53.792969 53.867188 56.925781 50 56.925781 C 46.136719 56.925781 43.003906 53.792969 43.003906 49.929688 C 43.003906 46.066406 46.136719 42.933594 50 42.933594 C 53.867188 42.933594 57 46.066406 57 49.929688 Z M 57 49.929688 "/>
<path style=" stroke:none;fill-rule:evenodd;fill:rgb(0%,84.705882%,100%);fill-opacity:1;" d="M 50.515625 35.179688 C 62.445312 35.261719 75.460938 36.132812 84.394531 44.101562 C 84.65625 44.335938 84.910156 44.578125 85.15625 44.828125 C 87.265625 46.976562 88.367188 50.445312 86.664062 53.300781 C 83.175781 59.164062 75.367188 61.71875 67.8125 63.292969 C 56.507812 65.644531 44.6875 65.664062 33.390625 63.59375 C 26.890625 62.398438 20.242188 60.304688 15.621094 55.929688 C 13.820312 54.226562 12.285156 51.984375 12.523438 49.492188 C 12.914062 45.457031 16.785156 42.867188 20.042969 41.117188 C 29.09375 36.246094 40.117188 35.15625 50.515625 35.179688 Z M 49.648438 37.015625 C 38.363281 37.089844 26.144531 37.8125 17.429688 45.027344 C 17.125 45.28125 16.832031 45.542969 16.546875 45.820312 C 16.367188 46 16.1875 46.183594 16.019531 46.375 C 14.488281 48.09375 13.960938 50.855469 15.40625 52.917969 C 16.859375 54.996094 19.066406 56.492188 21.335938 57.714844 C 29.835938 62.285156 39.875 63.09375 49.664062 63.128906 C 59.574219 63.164062 69.796875 62.261719 78.550781 57.734375 C 82.039062 55.929688 85.960938 53.28125 85.824219 49.867188 C 85.695312 46.738281 82.640625 44.804688 80.355469 43.421875 C 79.738281 43.046875 79.101562 42.703125 78.457031 42.378906 C 69.765625 38.023438 59.582031 36.992188 49.648438 37.015625 Z M 49.648438 37.015625 "/>
<path style=" stroke:none;fill-rule:evenodd;fill:rgb(0%,84.705882%,100%);fill-opacity:1;" d="M 65.804688 16.722656 C 70.167969 16.835938 72.429688 22.082031 72.726562 25.957031 C 72.789062 26.726562 72.808594 27.5 72.800781 28.273438 C 72.789062 29.109375 72.746094 29.949219 72.671875 30.78125 C 71.75 41.113281 67.035156 50.953125 61.480469 60.039062 C 56.046875 68.925781 49.421875 77.789062 40.410156 81.90625 C 37.429688 83.269531 33.886719 84.109375 31.25 82.589844 C 27.632812 80.507812 27.238281 75.636719 27.304688 71.941406 C 27.320312 71.03125 27.382812 70.125 27.476562 69.21875 C 28.863281 55.84375 35.644531 43.175781 44.128906 32.257812 C 49.078125 25.890625 54.96875 19.574219 62.304688 17.285156 C 63.457031 16.925781 64.375 16.707031 65.804688 16.722656 Z M 65.59375 18.554688 C 60.472656 18.636719 55.871094 22.433594 51.796875 26.378906 C 41.089844 36.75 33.195312 50.539062 30.023438 65.003906 C 29.773438 66.125 29.574219 67.253906 29.417969 68.390625 C 29.300781 69.269531 29.21875 70.152344 29.171875 71.039062 C 29.132812 71.746094 29.125 72.457031 29.144531 73.164062 C 29.160156 73.714844 29.195312 74.269531 29.257812 74.820312 C 29.300781 75.238281 29.363281 75.65625 29.4375 76.074219 C 29.496094 76.382812 29.5625 76.6875 29.640625 76.992188 C 29.707031 77.238281 29.777344 77.484375 29.859375 77.726562 C 30.5 79.65625 32.144531 81.496094 34.355469 81.554688 C 39.515625 81.695312 44.371094 77.9375 48.570312 73.847656 C 55.9375 66.675781 61.429688 57.660156 65.722656 48.1875 C 69.183594 40.535156 72.351562 32.21875 70.582031 23.800781 C 70.464844 23.222656 70.304688 22.652344 70.101562 22.097656 C 69.414062 20.226562 67.796875 18.550781 65.59375 18.554688 Z M 65.59375 18.554688 "/>
<path style=" stroke:none;fill-rule:evenodd;fill:rgb(0%,84.705882%,100%);fill-opacity:1;" d="M 34.546875 16.792969 C 40.113281 16.898438 45.117188 20.679688 49.554688 24.914062 C 57.660156 32.636719 63.636719 42.460938 68.171875 52.800781 C 71.683594 60.8125 74.914062 69.804688 72.042969 78.257812 C 71.136719 80.921875 68.847656 83.359375 65.796875 83.421875 C 60.203125 83.535156 55.015625 79.464844 50.515625 75.085938 C 39.226562 64.09375 30.84375 49.585938 27.972656 34.199219 C 27.765625 33.097656 27.605469 31.988281 27.492188 30.875 C 27.398438 29.964844 27.34375 29.050781 27.324219 28.136719 C 27.3125 27.398438 27.328125 26.664062 27.378906 25.929688 C 27.414062 25.4375 27.464844 24.949219 27.53125 24.464844 C 27.636719 23.703125 27.796875 22.953125 28.007812 22.214844 C 28.847656 19.335938 31.039062 16.769531 34.546875 16.792969 Z M 34.335938 18.625 C 31.074219 18.695312 29.582031 22.542969 29.28125 25.242188 C 29.21875 25.792969 29.183594 26.351562 29.164062 26.910156 C 29.144531 27.621094 29.152344 28.335938 29.1875 29.046875 C 29.703125 39.359375 34.3125 49.328125 39.875 58.457031 C 45.109375 67.050781 51.4375 75.609375 60.136719 80.007812 C 62.648438 81.28125 65.703125 82.277344 67.871094 81.078125 C 70.59375 79.570312 70.929688 75.984375 71.074219 73.308594 C 71.113281 72.578125 71.117188 71.847656 71.09375 71.117188 C 71.0625 70.203125 70.996094 69.289062 70.886719 68.378906 C 69.882812 59.882812 66.121094 51.84375 61.796875 44.25 C 56.421875 34.796875 49.832031 25.378906 40.507812 20.460938 C 38.574219 19.441406 36.484375 18.609375 34.335938 18.625 Z M 34.335938 18.625 "/>
</g>
</svg>
