<?xml version="1.0" encoding="UTF-8"?>
<svg xmlns="http://www.w3.org/2000/svg" xmlns:xlink="http://www.w3.org/1999/xlink" width="100px" height="100px" viewBox="0 0 100 100" version="1.1">
<g id="surface1">
<path style=" stroke:none;fill-rule:evenodd;fill:rgb(80%,40%,60%);fill-opacity:1;" d="M 50 6.25 C 74.164062 6.25 93.75 25.835938 93.75 50 C 93.75 74.164062 74.164062 93.75 50 93.75 C 25.835938 93.75 6.25 74.164062 6.25 50 C 6.25 25.835938 25.835938 6.25 50 6.25 Z M 50 6.25 "/>
<path style=" stroke:none;fill-rule:nonzero;fill:rgb(100%,100%,100%);fill-opacity:1;" d="M 77.445312 24.976562 C 75.460938 17.207031 62.578125 14.664062 50.382812 18.980469 C 42.746094 21.546875 35.691406 25.59375 29.621094 30.890625 C 22.90625 37.171875 21.835938 42.640625 22.273438 44.925781 C 23.835938 52.988281 34.878906 58.257812 39.417969 62.164062 L 39.417969 62.1875 C 38.082031 62.847656 28.28125 67.8125 25.980469 72.875 C 23.5625 78.226562 26.367188 82.0625 28.226562 82.578125 C 33.949219 83.957031 39.914062 81.539062 43.0625 76.5625 C 45.636719 72.578125 46.183594 67.613281 44.539062 63.164062 C 46.722656 62.605469 49 62.476562 51.234375 62.777344 C 58.910156 63.675781 60.414062 68.464844 60.128906 70.472656 C 59.855469 71.917969 58.964844 73.171875 57.695312 73.910156 C 57.15625 74.242188 56.992188 74.355469 57.039062 74.605469 C 57.101562 74.964844 57.351562 74.953125 57.808594 74.875 C 60.171875 74.132812 61.828125 72.011719 61.984375 69.539062 C 62.167969 64.851562 57.664062 59.585938 49.691406 59.71875 C 47.375 59.652344 45.0625 59.96875 42.851562 60.65625 C 42.742188 60.53125 42.628906 60.40625 42.511719 60.28125 C 37.582031 55.023438 28.46875 51.300781 28.851562 44.226562 C 28.992188 41.65625 29.886719 34.886719 46.351562 26.675781 C 59.851562 19.945312 70.660156 21.800781 72.527344 25.902344 C 75.195312 31.765625 66.753906 42.65625 52.734375 44.226562 C 49.59375 44.867188 46.335938 44.039062 43.882812 41.984375 C 43.144531 41.171875 43.035156 41.136719 42.757812 41.289062 C 42.3125 41.535156 42.597656 42.253906 42.757812 42.679688 C 43.84375 44.632812 45.667969 46.066406 47.824219 46.660156 C 53.335938 47.855469 59.085938 47.289062 64.257812 45.035156 C 72.757812 41.757812 79.390625 32.617188 77.445312 24.976562 Z M 41.304688 64.570312 C 41.925781 66.710938 41.894531 68.988281 41.214844 71.109375 C 41.144531 71.332031 41.0625 71.550781 40.976562 71.765625 C 40.886719 71.980469 40.792969 72.191406 40.691406 72.390625 C 40.164062 73.464844 39.484375 74.460938 38.667969 75.335938 C 36.128906 78.109375 32.574219 79.160156 31.054688 78.273438 C 29.410156 77.320312 30.230469 73.414062 33.179688 70.296875 C 35.441406 68.058594 38.054688 66.199219 40.910156 64.789062 Z M 41.304688 64.570312 "/>
</g>
</svg>
