<?xml version="1.0" encoding="UTF-8"?>
<svg xmlns="http://www.w3.org/2000/svg" xmlns:xlink="http://www.w3.org/1999/xlink" width="100px" height="100px" viewBox="0 0 100 100" version="1.1">
<g id="surface1">
<path style=" stroke:none;fill-rule:evenodd;fill:rgb(0%,45.882353%,61.568627%);fill-opacity:1;" d="M 0 50 C 0 69.789062 11.5 86.894531 28.179688 94.996094 L 4.328125 29.652344 C 1.554688 35.867188 0 42.75 0 50 Z M 83.753906 47.476562 C 83.753906 41.296875 81.53125 37.015625 79.632812 33.6875 C 77.097656 29.566406 74.71875 26.078125 74.71875 21.960938 C 74.71875 17.363281 78.203125 13.085938 83.117188 13.085938 C 83.335938 13.085938 83.546875 13.113281 83.761719 13.125 C 74.867188 4.976562 63.015625 0 50 0 C 32.53125 0 17.164062 8.960938 8.222656 22.535156 C 9.398438 22.574219 10.503906 22.59375 11.441406 22.59375 C 16.667969 22.59375 24.765625 21.960938 24.765625 21.960938 C 27.460938 21.800781 27.78125 25.761719 25.085938 26.078125 C 25.085938 26.078125 22.375 26.398438 19.363281 26.558594 L 37.570312 80.714844 L 48.515625 47.898438 L 40.726562 26.558594 C 38.03125 26.398438 35.480469 26.078125 35.480469 26.078125 C 32.785156 25.917969 33.101562 21.800781 35.796875 21.960938 C 35.796875 21.960938 44.054688 22.59375 48.96875 22.59375 C 54.195312 22.59375 62.292969 21.960938 62.292969 21.960938 C 64.988281 21.800781 65.304688 25.761719 62.613281 26.078125 C 62.613281 26.078125 59.898438 26.398438 56.890625 26.558594 L 74.960938 80.300781 L 79.949219 63.640625 C 82.105469 56.71875 83.753906 51.753906 83.753906 47.476562 Z M 93.875 26.011719 C 94.089844 27.605469 94.210938 29.3125 94.210938 31.152344 C 94.210938 36.222656 93.261719 41.925781 90.410156 49.0625 L 75.136719 93.214844 C 90.003906 84.550781 100 68.445312 100 50 C 100 41.304688 97.777344 33.132812 93.875 26.011719 Z M 50.878906 54.371094 L 35.875 97.964844 C 40.355469 99.28125 45.09375 100 50 100 C 55.820312 100 61.40625 98.996094 66.601562 97.167969 C 66.472656 96.953125 66.347656 96.726562 66.246094 96.480469 Z M 50.878906 54.371094 "/>
</g>
</svg>
