<?xml version="1.0" encoding="UTF-8"?>
<svg xmlns="http://www.w3.org/2000/svg" xmlns:xlink="http://www.w3.org/1999/xlink" width="100px" height="100px" viewBox="0 0 100 100" version="1.1">
<g id="surface1">
<path style=" stroke:none;fill-rule:nonzero;fill:rgb(0%,0%,0%);fill-opacity:1;" d="M 88.089844 45.179688 C 88.089844 42.511719 88.5 40.9375 88.5 38.066406 C 88.5 33.621094 86.863281 32.1875 83.238281 32.1875 L 80.566406 32.1875 L 80.566406 35.332031 L 81.382812 35.332031 C 83.234375 35.332031 83.640625 35.945312 83.640625 38.203125 C 83.640625 40.324219 83.4375 42.445312 83.4375 44.902344 C 83.4375 48.050781 84.460938 49.277344 86.515625 49.757812 L 86.515625 49.960938 C 84.460938 50.445312 83.4375 51.675781 83.4375 54.820312 C 83.4375 57.285156 83.640625 59.265625 83.640625 61.519531 C 83.640625 63.847656 83.167969 64.457031 81.382812 64.457031 L 81.382812 64.527344 L 80.566406 64.527344 L 80.566406 67.8125 L 83.238281 67.8125 C 86.863281 67.8125 88.5 66.378906 88.5 61.933594 C 88.5 58.992188 88.089844 57.488281 88.089844 54.820312 C 88.089844 53.382812 88.980469 51.878906 91.648438 51.742188 L 91.648438 48.1875 C 88.976562 48.121094 88.089844 46.617188 88.089844 45.179688 Z M 74.347656 49.351562 C 72.292969 48.535156 70.378906 48.050781 70.378906 46.683594 C 70.378906 45.660156 71.199219 45.039062 72.703125 45.039062 C 74.207031 45.039062 75.574219 45.652344 77.078125 46.75 L 79.816406 43.125 C 78.113281 41.820312 75.785156 40.453125 72.632812 40.453125 C 67.988281 40.453125 64.835938 43.125 64.835938 46.886719 C 64.835938 50.238281 67.777344 51.945312 70.246094 52.898438 C 72.363281 53.714844 74.417969 54.402344 74.417969 55.769531 C 74.417969 56.796875 73.597656 57.480469 71.746094 57.480469 C 70.039062 57.480469 68.324219 56.796875 66.484375 55.359375 L 63.746094 59.324219 C 65.796875 61.035156 68.941406 62.195312 71.542969 62.195312 C 77.011719 62.195312 79.953125 59.324219 79.953125 55.5625 C 79.949219 51.8125 77.007812 50.242188 74.347656 49.351562 Z M 27.636719 57.074219 C 27.164062 57.074219 26.546875 56.667969 26.546875 55.367188 L 26.546875 32.1875 L 16.828125 32.1875 C 13.136719 32.1875 11.5 33.621094 11.5 38.066406 C 11.5 41.007812 11.914062 42.652344 11.914062 45.179688 C 11.914062 46.617188 11.023438 48.121094 8.355469 48.257812 L 8.355469 51.8125 C 11.023438 51.882812 11.914062 53.386719 11.914062 54.824219 C 11.914062 57.351562 11.5 58.859375 11.5 61.800781 C 11.5 66.246094 13.140625 67.679688 16.765625 67.679688 L 19.433594 67.679688 L 19.433594 64.535156 L 18.613281 64.535156 C 16.898438 64.535156 16.355469 63.851562 16.355469 61.589844 C 16.355469 59.335938 16.558594 57.421875 16.558594 54.894531 C 16.558594 51.746094 15.539062 50.519531 13.484375 50.042969 L 13.484375 49.828125 C 15.539062 49.355469 16.558594 48.125 16.558594 44.976562 C 16.558594 42.515625 16.355469 40.535156 16.355469 38.277344 C 16.355469 36.019531 16.828125 35.410156 18.613281 35.410156 L 20.453125 35.410156 L 20.453125 55.039062 C 20.453125 59.207031 21.890625 61.941406 26.0625 61.941406 C 27.367188 61.941406 28.390625 61.734375 29.140625 61.460938 L 28.453125 57.019531 C 28.046875 57.074219 27.847656 57.074219 27.636719 57.074219 Z M 57.796875 49.351562 C 55.675781 48.535156 53.757812 48.050781 53.757812 46.683594 C 53.757812 45.660156 54.578125 45.039062 56.082031 45.039062 C 57.585938 45.039062 58.953125 45.652344 60.460938 46.75 L 63.195312 43.125 C 61.488281 41.820312 59.164062 40.453125 56.015625 40.453125 C 51.367188 40.453125 48.214844 43.125 48.214844 46.886719 C 48.214844 50.238281 51.164062 51.945312 53.621094 52.898438 C 55.746094 53.714844 57.796875 54.402344 57.796875 55.769531 C 57.796875 56.796875 56.976562 57.480469 55.125 57.480469 C 53.417969 57.480469 51.707031 56.796875 49.859375 55.359375 L 47.191406 59.324219 C 49.242188 61.035156 52.386719 62.195312 54.988281 62.195312 C 60.457031 62.195312 63.398438 59.324219 63.398438 55.5625 C 63.402344 51.8125 60.460938 50.242188 57.796875 49.351562 Z M 37.621094 40.390625 C 32.628906 40.390625 27.839844 44.5625 27.980469 51.128906 C 27.980469 57.894531 32.421875 61.863281 38.308594 61.863281 C 40.769531 61.863281 43.503906 60.972656 45.625 59.539062 L 43.574219 55.914062 C 42.074219 56.800781 40.632812 57.210938 39.132812 57.210938 C 36.394531 57.210938 34.277344 55.914062 33.730469 52.769531 L 46.109375 52.769531 C 46.179688 52.292969 46.3125 51.332031 46.3125 50.242188 C 46.378906 44.699219 43.367188 40.390625 37.621094 40.390625 Z M 33.726562 49.007812 C 34.136719 46.277344 35.773438 44.972656 37.6875 44.972656 C 40.152344 44.972656 41.109375 46.683594 41.109375 49.007812 Z M 33.726562 49.007812 "/>
</g>
</svg>
