<?xml version="1.0" encoding="UTF-8"?>
<svg xmlns="http://www.w3.org/2000/svg" xmlns:xlink="http://www.w3.org/1999/xlink" width="100px" height="100px" viewBox="0 0 100 100" version="1.1">
<g id="surface1">
<path style=" stroke:none;fill-rule:nonzero;fill:rgb(46.27451%,29.019608%,73.72549%);fill-opacity:1;" d="M 68.082031 67.363281 C 71.542969 67.011719 74.167969 64.078125 74.046875 60.558594 C 73.929688 57.039062 70.945312 54.226562 67.367188 54.226562 L 67.128906 54.226562 C 63.429688 54.34375 60.566406 57.390625 60.6875 61.027344 C 60.804688 62.789062 61.523438 64.3125 62.597656 65.367188 C 58.539062 73.226562 52.335938 78.972656 43.03125 83.78125 C 36.707031 87.066406 30.144531 88.242188 23.585938 87.417969 C 18.214844 86.714844 14.039062 84.371094 11.414062 80.5 C 7.597656 74.75 7.242188 68.535156 10.460938 62.320312 C 12.726562 57.863281 16.308594 54.578125 18.574219 52.933594 C 18.097656 51.410156 17.378906 48.828125 17.023438 46.953125 C -0.277344 59.269531 1.515625 75.925781 6.761719 83.78125 C 10.699219 89.648438 18.691406 93.285156 27.523438 93.285156 C 29.90625 93.285156 32.292969 93.050781 34.679688 92.464844 C 49.949219 89.53125 61.523438 80.617188 68.082031 67.363281 Z M 89.082031 52.816406 C 80.015625 42.378906 66.652344 36.632812 51.382812 36.632812 L 49.472656 36.632812 C 48.398438 34.519531 46.132812 33.113281 43.628906 33.113281 L 43.386719 33.113281 C 39.691406 33.230469 36.828125 36.28125 36.945312 39.914062 C 37.066406 43.433594 40.046875 46.25 43.628906 46.25 L 43.867188 46.25 C 46.492188 46.132812 48.757812 44.492188 49.710938 42.261719 L 51.859375 42.261719 C 60.925781 42.261719 69.515625 44.84375 77.269531 49.886719 C 83.234375 53.757812 87.53125 58.800781 89.914062 64.898438 C 91.945312 69.824219 91.824219 74.632812 89.675781 78.738281 C 86.335938 84.957031 80.730469 88.359375 73.332031 88.359375 C 68.5625 88.359375 64.027344 86.949219 61.640625 85.894531 C 60.328125 87.066406 57.941406 88.945312 56.273438 90.117188 C 61.402344 92.460938 66.652344 93.753906 71.664062 93.753906 C 83.117188 93.753906 91.585938 87.535156 94.808594 81.320312 C 98.265625 74.515625 98.027344 62.789062 89.082031 52.816406 Z M 28.476562 69.355469 C 28.59375 72.875 31.578125 75.6875 35.15625 75.6875 L 35.394531 75.6875 C 39.09375 75.574219 41.957031 72.523438 41.835938 68.886719 C 41.71875 65.367188 38.734375 62.554688 35.15625 62.554688 L 34.917969 62.554688 C 34.679688 62.554688 34.320312 62.554688 34.082031 62.671875 C 29.191406 54.695312 27.164062 46.015625 27.878906 36.632812 C 28.355469 29.59375 30.742188 23.496094 34.917969 18.449219 C 38.378906 14.109375 45.058594 12 49.59375 11.882812 C 62.238281 11.648438 67.605469 27.128906 67.964844 33.347656 C 69.515625 33.699219 72.140625 34.519531 73.929688 35.105469 C 72.496094 16.105469 60.566406 6.253906 49.117188 6.253906 C 38.378906 6.253906 28.476562 13.878906 24.539062 25.136719 C 19.050781 40.148438 22.628906 54.578125 29.3125 65.953125 C 28.714844 66.777344 28.355469 68.066406 28.476562 69.355469 Z M 28.476562 69.355469 "/>
</g>
</svg>
