<?xml version="1.0" encoding="UTF-8"?>
<svg xmlns="http://www.w3.org/2000/svg" xmlns:xlink="http://www.w3.org/1999/xlink" width="100px" height="100px" viewBox="0 0 100 100" version="1.1">
<g id="surface1">
<path style=" stroke:none;fill-rule:nonzero;fill:rgb(100%,0%,0%);fill-opacity:1;" d="M 97.695312 40.648438 C 97.8125 40.859375 97.917969 41.121094 98.019531 41.425781 C 97.902344 41.175781 97.824219 40.886719 97.695312 40.648438 C 100.164062 50.25 89.570312 61.496094 76.320312 58.3125 L 76.324219 58.3125 C 95.476562 45.769531 86.042969 30.097656 77.117188 22.5625 C 69.773438 16.355469 74.113281 14.4375 77.203125 14.4375 C 78.191406 14.4375 79.050781 14.628906 79.367188 14.941406 L 79.347656 14.925781 L 79.371094 14.941406 C 79.296875 8.972656 58.261719 10.316406 76.664062 29.5 C 86.113281 39.355469 74.960938 61.148438 61.679688 44.574219 C 61.570312 44.425781 61.472656 44.269531 61.382812 44.105469 C 63.527344 43.210938 65.289062 40.792969 65.289062 36.800781 C 65.308594 35.386719 65.03125 33.988281 64.464844 32.691406 C 66 29.566406 67.414062 25.828125 67.414062 21.148438 C 67.414062 9.964844 60.152344 0 49.996094 0 C 39.835938 0 32.578125 9.964844 32.578125 21.148438 C 32.578125 25.828125 33.992188 29.566406 35.523438 32.695312 C 34.960938 33.992188 34.679688 35.398438 34.703125 36.8125 C 34.703125 40.804688 36.457031 43.230469 38.609375 44.117188 C 38.519531 44.28125 38.417969 44.4375 38.308594 44.585938 C 25.023438 61.164062 13.875 39.363281 23.324219 29.511719 C 41.730469 10.328125 20.6875 8.988281 20.613281 14.953125 L 20.644531 14.9375 C 20.972656 14.628906 21.8125 14.4375 22.792969 14.4375 C 25.882812 14.4375 30.222656 16.355469 22.878906 22.5625 C 13.992188 30.0625 4.617188 45.636719 23.457031 58.152344 C 23.535156 58.207031 23.582031 58.265625 23.664062 58.320312 C 10.429688 61.503906 -0.144531 50.289062 2.285156 40.6875 L 2.300781 40.644531 C 2.296875 40.652344 2.292969 40.667969 2.285156 40.671875 L 2.289062 40.660156 L 2.273438 40.6875 C -2.617188 47.394531 -0.25 64.765625 18.015625 66.386719 C 18.097656 66.398438 18.164062 66.425781 18.242188 66.4375 C 0.0742188 70.605469 5.542969 95.6875 18.328125 91.671875 L 18.285156 91.667969 L 18.351562 91.652344 C 9.457031 90.214844 8.792969 79.167969 13.234375 75.363281 C 18.117188 71.171875 23.730469 74.792969 35.324219 71.480469 L 35.449219 71.460938 C 35.324219 81.652344 45.25 87.128906 40.046875 92.960938 C 34.5625 99.101562 27.078125 92.546875 28.136719 86.503906 L 28.164062 86.382812 L 28.144531 86.417969 L 28.144531 86.398438 L 28.128906 86.449219 C 23.542969 94.160156 29.351562 100 35.875 100 C 39.621094 100 43.605469 98.074219 45.996094 93.472656 C 51.054688 83.734375 36.058594 66.671875 49.996094 66.671875 C 63.929688 66.671875 48.933594 83.734375 53.992188 93.472656 C 56.382812 98.074219 60.367188 100 64.117188 100 C 70.664062 100 76.492188 94.121094 71.824219 86.382812 L 71.847656 86.472656 L 71.820312 86.398438 C 72.972656 92.472656 65.433594 99.136719 59.925781 92.960938 C 54.742188 87.113281 64.636719 81.636719 64.535156 71.449219 C 76.226562 74.832031 81.855469 71.148438 86.757812 75.367188 C 91.199219 79.164062 90.535156 90.214844 81.640625 91.660156 L 81.671875 91.660156 C 94.460938 95.648438 99.910156 70.601562 81.746094 66.421875 L 81.765625 66.417969 C 100.265625 64.910156 102.636719 47.363281 97.691406 40.648438 Z M 13.371094 42.273438 C 12.800781 32.917969 20.914062 25.304688 23.417969 23.1875 C 26.910156 20.242188 28.269531 17.886719 27.574219 15.992188 C 27.128906 14.832031 26.078125 14.011719 24.839844 13.859375 C 24.046875 13.734375 23.234375 13.777344 22.453125 13.984375 C 23.160156 13.640625 23.976562 13.441406 24.847656 13.441406 C 26.824219 13.441406 28.453125 14.371094 28.992188 15.8125 C 29.480469 17.117188 29.492188 20.007812 24.101562 24.699219 C 15.570312 32.128906 14.878906 41.042969 17.078125 46.910156 C 18.988281 52.003906 23.203125 55.300781 27.828125 55.300781 C 28.566406 55.300781 29.308594 55.214844 30.050781 55.0625 C 27.800781 56.980469 25.214844 57.605469 24.167969 57.796875 C 17.941406 53.441406 13.699219 47.714844 13.371094 42.265625 Z M 35.070312 70.914062 C 30.339844 72.171875 25.507812 72.242188 22.414062 72.257812 C 18.5625 72.285156 15.515625 72.300781 12.691406 74.730469 C 10.121094 76.929688 9.054688 81.371094 10.152344 85.296875 C 10.535156 86.648438 10.945312 88.027344 11.929688 88.867188 C 12.671875 89.503906 13.9375 90.410156 15.207031 91.042969 L 15.140625 91.023438 C 15.222656 91.066406 15.277344 91.121094 15.359375 91.164062 C 11.222656 90.277344 8.808594 86.246094 8.515625 82.269531 C 8.148438 77.25 11.023438 70.902344 20.316406 69.542969 C 21.792969 69.324219 23.351562 69.195312 24.902344 69.066406 C 28.695312 68.75 32.613281 68.421875 35.308594 66.816406 C 35.207031 68.398438 35.117188 70.101562 35.070312 70.914062 Z M 36.113281 59.730469 C 33.402344 63.886719 28.046875 64.535156 23.320312 65.105469 C 21.988281 65.261719 20.765625 65.449219 19.640625 65.679688 L 18.160156 65.578125 C 10.652344 64.929688 5.070312 61.386719 2.429688 55.597656 C 1.203125 52.917969 0.695312 49.96875 0.957031 47.035156 C 0.957031 47.035156 1.117188 45.464844 1.410156 43.824219 C 1.046875 48.386719 2.269531 52.734375 5.074219 56.3125 C 8.742188 60.941406 14.320312 63.644531 20.226562 63.652344 C 25.765625 63.652344 31.007812 61.195312 34.996094 56.726562 C 36.371094 55.183594 36.988281 55.066406 37.144531 55.066406 C 37.679688 55.839844 37.226562 58.015625 36.117188 59.730469 Z M 62.664062 36.800781 C 62.664062 42.414062 56.300781 42.414062 56.300781 36.800781 C 56.300781 31.1875 62.664062 31.1875 62.664062 36.800781 Z M 55.140625 13.917969 C 55.140625 17.003906 49.996094 17.003906 49.996094 13.917969 C 49.996094 10.832031 55.140625 10.832031 55.140625 13.917969 Z M 54.066406 47.898438 C 54.066406 51.019531 53.816406 53.550781 53.511719 53.550781 C 53.207031 53.550781 52.988281 51.027344 52.992188 47.902344 C 52.992188 44.777344 53.25 42.253906 53.546875 42.253906 C 53.835938 42.253906 54.078125 44.777344 54.066406 47.898438 Z M 50.101562 41.175781 C 50.332031 41.175781 50.515625 44.214844 50.515625 47.972656 C 50.515625 51.726562 50.332031 54.765625 50.101562 54.765625 C 49.867188 54.765625 49.683594 51.726562 49.683594 47.976562 C 49.683594 44.214844 49.871094 41.175781 50.101562 41.175781 Z M 49.296875 6.964844 C 49.296875 9.097656 45.757812 9.097656 45.757812 6.964844 C 45.757812 4.835938 49.300781 4.859375 49.300781 6.964844 Z M 46.851562 24.550781 C 46.851562 23.074219 49.296875 23.085938 49.296875 24.550781 C 49.296875 26.023438 46.851562 26.023438 46.851562 24.550781 Z M 47.042969 47.976562 C 47.042969 51.175781 46.773438 53.765625 46.472656 53.765625 C 46.167969 53.765625 45.921875 51.175781 45.925781 47.980469 C 45.929688 44.785156 46.191406 42.191406 46.5 42.191406 C 46.808594 42.191406 47.050781 44.773438 47.042969 47.976562 Z M 47.042969 16.746094 C 47.042969 18.871094 43.503906 18.871094 43.503906 16.746094 C 43.503906 14.621094 47.042969 14.621094 47.042969 16.746094 Z M 42.261719 11.605469 C 42.261719 13.074219 39.816406 13.074219 39.816406 11.605469 C 39.816406 10.132812 42.261719 10.132812 42.261719 11.605469 Z M 41.929688 22.054688 C 41.929688 23.117188 40.160156 23.117188 40.160156 22.054688 C 40.160156 20.988281 41.925781 20.988281 41.925781 22.054688 Z M 37.347656 36.804688 C 37.347656 31.191406 43.710938 31.191406 43.710938 36.804688 C 43.710938 42.417969 37.347656 42.417969 37.347656 36.804688 Z M 59.542969 74.671875 C 59.214844 77.753906 58.402344 80.421875 57.683594 82.777344 C 56.238281 87.519531 55.089844 91.261719 58.691406 95.289062 C 60.203125 96.984375 62.144531 97.878906 64.300781 97.878906 C 66.964844 97.878906 69.625 96.460938 71.234375 94.175781 C 71.953125 93.125 72.414062 91.917969 72.585938 90.660156 C 72.660156 91.324219 72.695312 91.949219 72.648438 92.394531 C 72.566406 93.339844 72.289062 94.257812 71.828125 95.085938 C 70.429688 97.566406 67.398438 99.171875 64.121094 99.171875 C 60.164062 99.171875 56.746094 96.953125 54.734375 93.089844 C 52.730469 89.230469 54.183594 83.867188 55.472656 79.132812 C 56.730469 74.488281 57.820312 70.480469 55.902344 67.976562 C 54.808594 66.539062 52.875 65.839844 50 65.839844 C 47.121094 65.839844 45.1875 66.539062 44.089844 67.976562 C 42.175781 70.476562 43.265625 74.488281 44.523438 79.132812 C 45.8125 83.867188 47.265625 89.230469 45.261719 93.089844 C 43.253906 96.953125 39.832031 99.171875 35.878906 99.171875 C 32.597656 99.171875 29.566406 97.566406 28.167969 95.085938 C 27.421875 93.746094 27.152344 92.191406 27.410156 90.679688 C 27.609375 91.914062 28 93.105469 28.753906 94.179688 C 30.367188 96.457031 33.023438 97.878906 35.691406 97.878906 C 37.851562 97.878906 39.792969 96.984375 41.308594 95.289062 C 44.898438 91.261719 43.757812 87.527344 42.308594 82.796875 C 41.585938 80.433594 40.769531 77.753906 40.453125 74.671875 C 40.039062 70.644531 40.949219 67.058594 42.953125 64.835938 C 44.617188 63 46.984375 62.0625 49.996094 62.0625 C 53.007812 62.0625 55.382812 62.996094 57.039062 64.832031 C 59.039062 67.054688 59.953125 70.636719 59.539062 74.667969 Z M 72.164062 55.308594 C 76.789062 55.308594 81.003906 52.015625 82.910156 46.917969 C 85.101562 41.050781 84.410156 32.136719 75.867188 24.707031 C 70.472656 20.011719 70.484375 17.125 70.972656 15.816406 C 71.511719 14.378906 73.136719 13.445312 75.113281 13.445312 C 75.917969 13.445312 76.664062 13.632812 77.328125 13.925781 L 77.375 13.941406 C 76.644531 13.78125 75.894531 13.753906 75.152344 13.867188 C 73.917969 14.019531 72.867188 14.839844 72.421875 16 C 71.730469 17.894531 73.085938 20.25 76.578125 23.199219 C 79.078125 25.3125 87.195312 32.925781 86.625 42.273438 C 86.292969 47.726562 82.054688 53.449219 75.828125 57.804688 C 73.664062 57.414062 71.640625 56.472656 69.945312 55.070312 C 70.683594 55.230469 71.429688 55.308594 72.164062 55.308594 Z M 91.476562 82.261719 C 91.183594 86.246094 88.765625 90.269531 84.621094 91.152344 C 84.683594 91.121094 84.738281 91.078125 84.796875 91.042969 C 86.066406 90.402344 87.328125 89.507812 88.066406 88.875 C 89.046875 88.035156 89.460938 86.652344 89.839844 85.300781 C 90.941406 81.375 89.875 76.933594 87.304688 74.734375 C 84.480469 72.308594 81.433594 72.289062 77.582031 72.261719 C 74.488281 72.246094 69.652344 72.175781 64.917969 70.917969 C 64.875 70.101562 64.792969 68.410156 64.691406 66.820312 C 67.386719 68.429688 71.3125 68.757812 75.109375 69.078125 C 76.664062 69.207031 78.207031 69.335938 79.679688 69.550781 C 88.972656 70.914062 91.839844 77.25 91.472656 82.257812 Z M 80.367188 65.683594 C 79.238281 65.449219 78.011719 65.265625 76.675781 65.101562 C 71.945312 64.535156 66.585938 63.886719 63.882812 59.726562 C 62.765625 58.015625 62.300781 55.851562 62.667969 55.183594 C 62.730469 55.160156 62.796875 55.148438 62.867188 55.144531 C 63.242188 55.144531 63.859375 55.449219 64.996094 56.726562 C 68.984375 61.195312 74.234375 63.652344 79.769531 63.652344 C 85.664062 63.652344 91.328125 60.902344 94.925781 56.308594 C 97.726562 52.734375 98.945312 48.390625 98.589844 43.832031 C 98.882812 45.472656 99.039062 47.042969 99.039062 47.042969 C 99.296875 49.972656 98.792969 52.921875 97.566406 55.601562 C 94.925781 61.390625 89.339844 64.933594 81.835938 65.582031 Z M 39.992188 34.453125 C 40.304688 34.648438 40.484375 35.007812 40.449219 35.375 C 40.484375 35.746094 40.304688 36.105469 39.988281 36.300781 C 39.671875 36.496094 39.269531 36.496094 38.953125 36.300781 C 38.636719 36.105469 38.457031 35.746094 38.492188 35.375 C 38.457031 35.003906 38.636719 34.640625 38.953125 34.445312 C 39.273438 34.25 39.675781 34.253906 39.992188 34.453125 Z M 57.886719 36.300781 C 57.570312 36.105469 57.394531 35.746094 57.429688 35.375 C 57.40625 35.011719 57.585938 34.664062 57.898438 34.472656 C 58.210938 34.285156 58.601562 34.285156 58.914062 34.472656 C 59.226562 34.664062 59.40625 35.011719 59.382812 35.375 C 59.417969 35.746094 59.238281 36.105469 58.921875 36.300781 C 58.605469 36.496094 58.203125 36.496094 57.886719 36.300781 Z M 57.886719 36.300781 "/>
</g>
</svg>
